<svg width="120" height="14" viewBox="0 0 120 14" fill="none" xmlns="http://www.w3.org/2000/svg">
<g id="logo">
<g id="XMLID_234_">
<path id="XMLID_243_" d="M9.42323 1.52885V8.16346C9.42323 10.375 8.46169 11.2885 6.154 11.2885C3.8463 11.2885 2.88477 10.375 2.88477 8.16346V1.24039H0.673227C0.528996 1.24039 0.384766 1.38462 0.384766 1.52885V8.25962C0.384766 11.9615 2.74054 13.2596 6.154 13.2596C9.56746 13.2596 11.9232 11.9615 11.9232 8.25962V1.24039H9.71169C9.56746 1.24039 9.42323 1.33654 9.42323 1.52885Z" fill="black"/>
<path id="XMLID_242_" d="M41.5867 3.16346C41.779 3.16346 41.8752 3.11539 41.9233 2.97116L42.5483 1.38462C42.5963 1.28846 42.5483 1.24039 42.4521 1.24039H33.5098C32.6925 1.24039 32.356 1.48077 32.356 2.05769V12.3462C32.356 12.8269 32.5963 13.0673 33.2213 13.0673H41.5386C41.731 13.0673 41.8271 13.0192 41.8752 12.875L42.5002 11.2885C42.5483 11.1923 42.5002 11.1442 42.404 11.1442H34.8079V9.02885C34.8079 8.30769 35.1925 7.97116 36.2983 7.97116H39.6156C39.8079 7.97116 39.904 7.92308 39.9521 7.77885L40.5771 6.24039C40.6252 6.14423 40.5771 6.09616 40.481 6.09616H34.856V3.11539H41.5867V3.16346Z" fill="black"/>
<path id="XMLID_238_" fill-rule="evenodd" clip-rule="evenodd" d="M25.8653 6.81732C26.8268 6.28845 27.2115 5.375 27.2115 4.22116C27.2115 1.625 25.0961 1.24039 22.8846 1.24039H17.8365C17.0192 1.24039 16.6826 1.48077 16.6826 2.05771V12.3462C16.6826 12.8269 16.923 13.0673 17.548 13.0673H23.7499C26.1057 13.0673 27.7403 12.1538 27.7403 9.79807C27.7884 8.35577 27.2115 7.15384 25.8653 6.81732ZM19.1826 3.11539H23.0768C24.3749 3.11539 24.7596 3.59616 24.7596 4.60577C24.7596 5.61539 24.3749 6.09616 23.0768 6.09616H19.1826V3.11539ZM19.1826 11.1442H23.5576C24.9518 11.1442 25.3365 10.6635 25.3365 9.55768C25.3365 8.4519 24.9518 7.92307 23.5576 7.92307H20.673C19.5672 7.92307 19.1826 8.25961 19.1826 8.98074V11.1442Z" fill="black"/>
<path id="XMLID_235_" fill-rule="evenodd" clip-rule="evenodd" d="M55.3846 8.30771L58.0288 12.875C58.0769 12.9231 58.0769 13.0673 57.9808 13.0673H55.7212C55.5288 13.0673 55.4808 13.0192 55.3846 12.875L52.9808 8.54807H50.8173C49.7115 8.54807 49.3269 8.88461 49.3269 9.60577V13.0673H47.1635C47.0192 13.0673 46.875 12.9231 46.875 12.7788V2.05771C46.875 1.48077 47.2115 1.24039 48.0288 1.24039H53.0769C56.0096 1.24039 57.7885 2.00961 57.7885 4.89423C57.7885 7.10577 56.6827 7.97116 55.3846 8.30771ZM49.2788 6.72116H53.4135C54.9519 6.72116 55.2885 6.14423 55.2885 4.89423C55.2885 3.69232 54.9519 3.11539 53.4135 3.11539H49.2788V6.72116Z" fill="black"/>
</g>
<g id="XMLID_224_">
<path id="XMLID_232_" d="M76.4426 12.0096L76.3945 13.0673H67.6445V1.24039H76.058L76.1061 2.34616H68.8465V6.43269H75.0965V7.39423H68.8465V12.0096H76.4426Z" fill="#57AD56" stroke="#57AD56" stroke-width="0.25"/>
<g id="XMLID_229_">
<path fill-rule="evenodd" clip-rule="evenodd" d="M83.7023 9.99039H90.6735L92.0197 13.0673H93.3658L87.9331 1.24039H86.5389L81.0581 13.0673H82.3562L83.7023 9.99039ZM84.135 8.98077L86.6831 3.25964L87.1639 2.05771H87.212L87.6927 3.25964L90.1927 8.98077H84.135Z" fill="#57AD56"/>
<path d="M90.6735 9.99039L90.788 9.94028L90.7552 9.86539H90.6735V9.99039ZM83.7023 9.99039V9.86539H83.6206L83.5878 9.94028L83.7023 9.99039ZM92.0197 13.0673L91.9051 13.1174L91.9379 13.1923H92.0197V13.0673ZM93.3658 13.0673V13.1923H93.5608L93.4794 13.0151L93.3658 13.0673ZM87.9331 1.24039L88.0467 1.18821L88.0132 1.11539H87.9331V1.24039ZM86.5389 1.24039V1.11539H86.459L86.4255 1.18783L86.5389 1.24039ZM81.0581 13.0673L80.9447 13.0148L80.8624 13.1923H81.0581V13.0673ZM82.3562 13.0673V13.1923H82.4379L82.4707 13.1174L82.3562 13.0673ZM86.6831 3.25964L86.7974 3.31054L86.7992 3.30607L86.6831 3.25964ZM84.135 8.98077L84.0209 8.92992L83.9425 9.10577H84.135V8.98077ZM87.1639 2.05771V1.93271H87.0793L87.0478 2.01128L87.1639 2.05771ZM87.212 2.05771L87.328 2.01129L87.2966 1.93271H87.212V2.05771ZM87.6927 3.25964L87.5766 3.30609L87.5782 3.3097L87.6927 3.25964ZM90.1927 8.98077V9.10577H90.3838L90.3073 8.93072L90.1927 8.98077ZM90.6735 9.86539H83.7023V10.1154H90.6735V9.86539ZM92.1342 13.0172L90.788 9.94028L90.559 10.0405L91.9051 13.1174L92.1342 13.0172ZM93.3658 12.9423H92.0197V13.1923H93.3658V12.9423ZM87.8195 1.29256L93.2522 13.1195L93.4794 13.0151L88.0467 1.18821L87.8195 1.29256ZM86.5389 1.36539H87.9331V1.11539H86.5389V1.36539ZM81.1715 13.1199L86.6523 1.29294L86.4255 1.18783L80.9447 13.0148L81.1715 13.1199ZM82.3562 12.9423H81.0581V13.1923H82.3562V12.9423ZM83.5878 9.94028L82.2417 13.0172L82.4707 13.1174L83.8169 10.0405L83.5878 9.94028ZM86.5689 3.20879L84.0209 8.92992L84.2492 9.03163L86.7973 3.3105L86.5689 3.20879ZM87.0478 2.01128L86.567 3.21322L86.7992 3.30607L87.2799 2.10413L87.0478 2.01128ZM87.212 1.93271H87.1639V2.18271H87.212V1.93271ZM87.8088 3.21322L87.328 2.01129L87.0959 2.10413L87.5767 3.30606L87.8088 3.21322ZM90.3073 8.93072L87.8073 3.20959L87.5782 3.3097L90.0782 9.03083L90.3073 8.93072ZM84.135 9.10577H90.1927V8.85577H84.135V9.10577Z" fill="#57AD56"/>
</g>
<path id="XMLID_227_" d="M102.02 2.34616V13.0673H100.818V2.34616H96.3945L96.4426 1.24039H106.491V2.34616H102.02Z" fill="#57AD56" stroke="#57AD56" stroke-width="0.25"/>
<path id="XMLID_225_" d="M115.048 13.3077C113.414 13.3077 112.116 12.9231 111.058 12.2981L111.25 11.2404C112.356 11.8654 113.606 12.25 115.097 12.25C117.308 12.25 118.462 11.2404 118.462 9.79808C118.462 6.67308 111.25 8.30769 111.25 4.26923C111.25 2.53846 112.548 1 115.577 1C116.972 1 118.222 1.24038 119.231 1.72115L119.039 2.73077C117.933 2.29808 116.875 2.05769 115.625 2.05769C113.27 2.05769 112.404 3.11538 112.404 4.17308C112.404 7.15385 119.616 5.47115 119.616 9.70192C119.568 11.8173 118.029 13.3077 115.048 13.3077Z" fill="#57AD56" stroke="#57AD56" stroke-width="0.25"/>
</g>
</g>
</svg>
