<svg width="192" height="21" viewBox="0 0 192 21" fill="none" xmlns="http://www.w3.org/2000/svg">
<g id="white-logo">
<g id="XMLID_234_">
<path id="XMLID_243_" d="M15.0768 1.84618V12.4616C15.0768 16 13.5383 17.4616 9.846 17.4616C6.1537 17.4616 4.61523 16 4.61523 12.4616V1.38464H1.07677C0.846004 1.38464 0.615234 1.61541 0.615234 1.84618V12.6154C0.615234 18.5385 4.38447 20.6154 9.846 20.6154C15.3075 20.6154 19.0768 18.5385 19.0768 12.6154V1.38464H15.5383C15.3075 1.38464 15.0768 1.53849 15.0768 1.84618Z" fill="white"/>
<path id="XMLID_242_" d="M66.5383 4.46157C66.846 4.46157 66.9998 4.38464 67.0767 4.15387L68.0767 1.61541C68.1537 1.46157 68.0767 1.38464 67.9229 1.38464H53.6152C52.3075 1.38464 51.769 1.76926 51.769 2.69234V19.1539C51.769 19.9231 52.1537 20.3077 53.1537 20.3077H66.4614C66.769 20.3077 66.9229 20.2308 66.9998 20L67.9998 17.4616C68.0767 17.3077 67.9998 17.2308 67.846 17.2308H55.6921V13.8462C55.6921 12.6923 56.3075 12.1539 58.0767 12.1539H63.3844C63.6921 12.1539 63.846 12.077 63.9229 11.8462L64.9229 9.38464C64.9998 9.2308 64.9229 9.15387 64.769 9.15387H55.769V4.38464H66.5383V4.46157Z" fill="white"/>
<path id="XMLID_238_" fill-rule="evenodd" clip-rule="evenodd" d="M41.3847 10.3077C42.9232 9.46155 43.5385 8 43.5385 6.15393C43.5385 2 40.1539 1.38464 36.6154 1.38464H28.5385C27.2308 1.38464 26.6924 1.76929 26.6924 2.69238V19.1539C26.6924 19.9231 27.077 20.3077 28.077 20.3077H38.0001C41.7693 20.3077 44.3847 18.8462 44.3847 15.0769C44.4616 12.7693 43.5385 10.8462 41.3847 10.3077ZM30.6924 4.38464H36.9232C39.0001 4.38464 39.6154 5.15393 39.6154 6.76929C39.6154 8.38464 39.0001 9.15393 36.9232 9.15393H30.6924V4.38464ZM30.6924 17.2307H37.6924C39.9232 17.2307 40.5385 16.4615 40.5385 14.6923C40.5385 12.9231 39.9232 12.0769 37.6924 12.0769H33.077C31.3078 12.0769 30.6924 12.6154 30.6924 13.7692V17.2307Z" fill="white"/>
<path id="XMLID_235_" fill-rule="evenodd" clip-rule="evenodd" d="M88.6154 12.6924L92.8462 20C92.9231 20.0769 92.9231 20.3077 92.7692 20.3077H89.1538C88.8462 20.3077 88.7692 20.2308 88.6154 20L84.7692 13.0769H81.3077C79.5385 13.0769 78.9231 13.6154 78.9231 14.7693V20.3077H75.4615C75.2308 20.3077 75 20.0769 75 19.8462V2.69238C75 1.76929 75.5385 1.38464 76.8462 1.38464H84.9231C89.6154 1.38464 92.4615 2.61536 92.4615 7.23083C92.4615 10.7693 90.6923 12.1539 88.6154 12.6924ZM78.8462 10.1539H85.4615C87.9231 10.1539 88.4615 9.23083 88.4615 7.23083C88.4615 5.30774 87.9231 4.38464 85.4615 4.38464H78.8462V10.1539Z" fill="white"/>
</g>
<g id="XMLID_224_">
<path id="XMLID_232_" d="M122.307 18.6154L122.23 20.3077H108.23V1.38464H121.692L121.769 3.15387H110.154V9.69234H120.154V11.2308H110.154V18.6154H122.307Z" fill="#57AD56" stroke="#57AD56" stroke-width="0.25"/>
<g id="XMLID_229_">
<path fill-rule="evenodd" clip-rule="evenodd" d="M133.923 15.3846H145.077L147.23 20.3077H149.384L140.692 1.38464H138.461L129.692 20.3077H131.769L133.923 15.3846ZM134.615 13.7693L138.692 4.61548L139.461 2.69238H139.538L140.307 4.61548L144.307 13.7693H134.615Z" fill="#57AD56"/>
<path d="M145.077 15.3846L145.191 15.3345L145.158 15.2596H145.077V15.3846ZM133.923 15.3846V15.2596H133.841L133.808 15.3345L133.923 15.3846ZM147.23 20.3077L147.116 20.3578L147.149 20.4327H147.23V20.3077ZM149.384 20.3077V20.4327H149.579L149.498 20.2556L149.384 20.3077ZM140.692 1.38464L140.805 1.33247L140.772 1.25964H140.692V1.38464ZM138.461 1.38464V1.25964H138.381L138.348 1.33209L138.461 1.38464ZM129.692 20.3077L129.578 20.2552L129.496 20.4327H129.692V20.3077ZM131.769 20.3077V20.4327H131.851L131.883 20.3578L131.769 20.3077ZM138.692 4.61548L138.806 4.66637L138.808 4.6619L138.692 4.61548ZM134.615 13.7693L134.501 13.7184L134.422 13.8943H134.615V13.7693ZM139.461 2.69238V2.56738H139.376L139.345 2.64596L139.461 2.69238ZM139.538 2.69238L139.654 2.64596L139.623 2.56738H139.538V2.69238ZM140.307 4.61548L140.191 4.66193L140.193 4.66553L140.307 4.61548ZM144.307 13.7693V13.8943H144.498L144.422 13.7192L144.307 13.7693ZM145.077 15.2596H133.923V15.5096H145.077V15.2596ZM147.345 20.2576L145.191 15.3345L144.962 15.4347L147.116 20.3578L147.345 20.2576ZM149.384 20.1827H147.23V20.4327H149.384V20.1827ZM140.578 1.43682L149.271 20.3599L149.498 20.2556L140.805 1.33247L140.578 1.43682ZM138.461 1.50964H140.692V1.25964H138.461V1.50964ZM129.805 20.3603L138.575 1.4372L138.348 1.33209L129.578 20.2552L129.805 20.3603ZM131.769 20.1827H129.692V20.4327H131.769V20.1827ZM133.808 15.3345L131.654 20.2576L131.883 20.3578L134.037 15.4347L133.808 15.3345ZM138.578 4.56462L134.501 13.7184L134.729 13.8201L138.806 4.66634L138.578 4.56462ZM139.345 2.64596L138.576 4.56906L138.808 4.6619L139.577 2.73881L139.345 2.64596ZM139.538 2.56738H139.461V2.81738H139.538V2.56738ZM140.423 4.56905L139.654 2.64596L139.422 2.73881L140.191 4.6619L140.423 4.56905ZM144.422 13.7192L140.422 4.56543L140.193 4.66553L144.193 13.8193L144.422 13.7192ZM134.615 13.8943H144.307V13.6443H134.615V13.8943Z" fill="#57AD56"/>
</g>
<path id="XMLID_227_" d="M163.23 3.15387V20.3077H161.307V3.15387H154.23L154.307 1.38464H170.384V3.15387H163.23Z" fill="#57AD56" stroke="#57AD56" stroke-width="0.25"/>
<path id="XMLID_225_" d="M184.077 20.6923C181.461 20.6923 179.384 20.0769 177.692 19.0769L178 17.3846C179.769 18.3846 181.769 19 184.153 19C187.692 19 189.538 17.3846 189.538 15.0769C189.538 10.0769 178 12.6923 178 6.23077C178 3.46154 180.077 1 184.923 1C187.153 1 189.153 1.38462 190.769 2.15385L190.461 3.76923C188.692 3.07692 187 2.69231 185 2.69231C181.23 2.69231 179.846 4.38462 179.846 6.07692C179.846 10.8462 191.384 8.15385 191.384 14.9231C191.307 18.3077 188.846 20.6923 184.077 20.6923Z" fill="#57AD56" stroke="#57AD56" stroke-width="0.25"/>
</g>
</g>
</svg>
